HIERARCHY
ROOT Hips
{
  OFFSET -76.4038 93.2266 58.9087
  CHANNELS 6 Xposition Yposition Zposition Zrotation Xrotation Yrotation
  JOINT RightUpLeg
  {
    OFFSET -8.9458 -8.66707 0.101652
    CHANNELS 3 Zrotation Xrotation Yrotation
    JOINT RightLeg
    {
      OFFSET 0 -44.4227 1.3727
      CHANNELS 3 Zrotation Xrotation Yrotation
      JOINT RightFoot
      {
        OFFSET 0.253549 -42.0924 -1.46059
        CHANNELS 3 Zrotation Xrotation Yrotation
        JOINT RightToes
        {
          OFFSET 0.04 -4.41509 8.4991
          CHANNELS 3 Zrotation Xrotation Yrotation
          End Site
          {
            OFFSET -0.08 -0.137448 9.77979
          }
        }
      }
    }
  }
  JOINT Spine
  {
    OFFSET 0 11.8905 0
    CHANNELS 3 Zrotation Xrotation Yrotation
    JOINT Spine1
    {
      OFFSET 0 25.6574 0.127663
      CHANNELS 3 Zrotation Xrotation Yrotation
      JOINT HEad
      {
        OFFSET 0 8.73416 0.011341
        CHANNELS 3 Zrotation Xrotation Yrotation
        End Site
        {
          OFFSET -0.29 12.7742 2.51395
        }
      }
      JOINT LeftShoulder1
      {
        OFFSET 8.99 -0.362252 -0.22
        CHANNELS 3 Zrotation Xrotation Yrotation
        JOINT LeftArm
        {
          OFFSET 10.2827 -0.00338 0.322123
          CHANNELS 3 Zrotation Xrotation Yrotation
          JOINT LeftForeArm
          {
            OFFSET 32.7669 0.099144 -1.42434
            CHANNELS 3 Zrotation Xrotation Yrotation
            JOINT LeftHand
            {
              OFFSET 27.5643 0.085362 1.02216
              CHANNELS 3 Zrotation Xrotation Yrotation
              End Site
              {
                OFFSET 16.7443 -0.6 1.50291
              }
            }
          }
        }
      }
      JOINT RightShoulder
      {
        OFFSET -8.99 -0.362252 -0.22
        CHANNELS 3 Zrotation Xrotation Yrotation
        JOINT RightArm
        {
          OFFSET -10.2827 -0.00338 0.322123
          CHANNELS 3 Zrotation Xrotation Yrotation
          JOINT RightForeArm
          {
            OFFSET -32.8971 0.099144 -1.42434
            CHANNELS 3 Zrotation Xrotation Yrotation
            JOINT RightHand
            {
              OFFSET -27.4921 0.085362 1.02216
              CHANNELS 3 Zrotation Xrotation Yrotation
              End Site
              {
                OFFSET -16.6312 -0.6 1.50291
              }
            }
          }
        }
      }
    }
  }
  JOINT LeftUpLeg
  {
    OFFSET 8.9458 -8.66707 0.101652
    CHANNELS 3 Zrotation Xrotation Yrotation
    JOINT LeftLeg
    {
      OFFSET 0 -44.4227 1.3727
      CHANNELS 3 Zrotation Xrotation Yrotation
      JOINT LeftFoot
      {
        OFFSET -0.253549 -42.0924 -1.46059
        CHANNELS 3 Zrotation Xrotation Yrotation
        JOINT LeftToes
        {
          OFFSET -0.04 -4.41509 8.4991
          CHANNELS 3 Zrotation Xrotation Yrotation
          End Site
          {
            OFFSET 0.08 -0.047448 9.77979
          }
        }
      }
    }
  }
}
MOTION
Frames:	20
Frame Time:	0.0166667
-79.5616 83.8867 61.7144 -5.86511 0.0620965 -130.517 -34.744 -33.9397 8.36952 23.6885 54.4255 -27.0649 6.31516 17.6348 -1.39558 -19.2892 -37.501 -14.7244 3.31545 6.87983 -5.91605 -0.79899 12.868 -10.4376 -2.1074 1.38706 6.30205 -3.53113e-031 3.18055e-015 6.36111e-015 -66.9806 2.69818 -53.2943 -11.9694 29.6615 -93.6796 6.54677 9.62745 -1.04006 26.4823 -5.41756 -21.3427 65.5052 -50.8877 25.018 -11.4277 43.8895 148.889 -24.315 8.81922 0.923119 24.9195 3.12381 -14.9457 -18.1113 37.5578 10.9255 -11.7527 33.6127 4.04128 93.5166 -62.0356 72.8287 
-79.6183 83.552 62.1731 -5.65339 -0.429869 -131.894 -35.1099 -34.0263 7.57116 23.865 54.3864 -26.7409 6.77726 15.324 -1.37613 -19.3793 -37.1235 -15.109 3.09461 6.69636 -5.5005 -1.25924 12.4827 -9.59146 -1.03012 0.523966 5.72697 -0 0 6.36111e-015 -72.5798 -1.58515 -45.4536 -13.555 34.9222 -97.504 6.54677 9.62745 -1.04006 26.7179 -5.51461 -21.5254 67.2339 -51.8677 25.4249 -12.0307 43.7385 151.573 -22.7098 9.33106 -1.34887 24.0437 3.88325 -14.9006 -18.4644 36.9732 11.6638 -9.74877 31.0094 3.09777 90.6148 -61.0166 71.1905 
-79.597 83.4872 62.4151 -5.37341 -0.715636 -133.26 -35.3689 -33.8553 6.62238 23.6401 53.4616 -25.6331 7.61783 12.8014 -1.39403 -18.6881 -36.7121 -14.2397 2.85286 6.51661 -4.91143 -1.81512 12.0951 -8.40025 0.565936 0.00694193 4.43971 -3.18055e-015 4.77083e-015 -0 -73.9894 -3.5529 -38.6423 -14.2267 36.6048 -101.421 6.54677 9.62745 -1.04006 26.887 -5.54143 -21.5086 69.7424 -54.2587 26.4982 -12.4177 44.5226 153.569 -22.0807 9.669 -3.07614 23.4161 4.15526 -14.8218 -19.0244 36.9433 12.7604 -8.45114 28.9828 2.51556 87.0608 -59.9739 68.9828 
-79.4901 83.6575 62.477 -5.05827 -0.749659 -134.702 -35.3586 -33.5629 5.65342 22.9019 52.0221 -23.577 8.96244 10.6528 -1.48106 -17.5307 -36.6859 -12.3457 2.61576 6.37937 -4.18939 -2.41015 11.7732 -6.92781 2.39529 -0.276945 2.64834 -1.59028e-015 1.59028e-015 3.18055e-015 -73.9083 -5.03366 -32.6633 -14.4821 37.9852 -104.863 6.54677 9.62745 -1.04006 26.9705 -5.5016 -21.32 72.8767 -57.2855 28.4278 -12.5542 46.076 154.532 -22.5863 9.80876 -3.84003 23.0144 4.0155 -14.7095 -19.5127 37.4979 13.7559 -8.28683 28.1188 2.40406 84.5183 -58.9747 67.617 
-79.3045 84.0253 62.3951 -4.73429 -0.548041 -136.336 -34.9176 -33.2813 4.79691 21.5471 50.3472 -20.5217 10.6824 9.35808 -1.64502 -16.3181 -37.2488 -9.99321 2.40133 6.30332 -3.39027 -2.98598 11.5524 -5.28186 4.15466 -0.423435 0.680709 1.59028e-015 0 -6.36111e-015 -72.7117 -5.80667 -27.9819 -14.3751 38.9846 -107.709 6.54677 9.62745 -1.04006 26.9405 -5.39678 -20.9821 76.2551 -59.7899 31.1804 -12.447 47.7799 154.221 -24.0591 9.73226 -3.4952 22.7336 3.58893 -14.5831 -19.7067 38.5355 14.3143 -9.3639 28.7602 2.79155 83.6908 -57.962 67.8116 
-79.0639 84.5593 62.1965 -4.41296 -0.181294 -138.304 -33.9232 -33.1199 4.17266 19.5487 48.5716 -16.6189 12.4406 9.13911 -1.88526 -15.3729 -38.4612 -7.73477 2.2202 6.28074 -2.57618 -3.49573 11.4226 -3.5967 5.57905 -0.449301 -1.07672 0 3.18055e-015 -0 -70.9696 -5.98253 -24.895 -14.0433 39.6211 -109.899 6.54677 9.62745 -1.04006 26.773 -5.229 -20.5117 79.0659 -60.702 34.1949 -12.0896 48.9226 152.591 -26.0638 9.42295 -2.16714 22.4231 3.06718 -14.5097 -19.4809 39.7901 14.2102 -11.6105 30.8299 3.71368 84.2105 -56.7521 69.4061 
-78.8019 85.2318 61.8963 -4.08742 0.245521 -140.757 -32.3127 -33.1539 3.87676 16.9836 46.704 -12.1816 13.8544 9.90737 -2.18162 -14.7867 -40.2071 -5.83564 2.06474 6.27983 -1.80621 -3.91131 11.3314 -2.00996 6.48378 -0.292931 -2.25538 -1.59028e-015 0 -6.36111e-015 -69.1973 -5.96011 -23.4836 -13.6783 39.9926 -111.383 6.54677 9.62745 -1.04006 26.4531 -4.99826 -19.9085 80.4062 -59.4796 36.6539 -11.4878 49.1286 149.872 -28.1116 8.89478 -0.139373 21.9408 2.69066 -14.5808 -18.8294 40.889 13.3646 -14.8937 33.845 5.21952 85.014 -55.2066 71.5511 
-78.5518 86.0062 61.5059 -3.73381 0.621003 -143.826 -30.0902 -33.4238 3.96413 14.024 44.6899 -7.55886 14.6513 11.3499 -2.47933 -14.4339 -42.1852 -4.26524 1.91147 6.25583 -1.13359 -4.21704 11.2017 -0.645576 6.77759 0.131202 -2.56666 -1.59028e-015 -1.59028e-015 -3.18055e-015 -67.7347 -6.27286 -23.6306 -13.4655 40.2296 -112.106 6.54677 9.62745 -1.04006 25.9695 -4.69873 -19.1436 80.0183 -56.1375 38.2242 -10.7128 48.4397 146.536 -29.8461 8.21203 2.25412 21.1998 2.68867 -14.8499 -17.854 41.4884 11.9054 -19.0027 37.0904 7.28885 85.0759 -53.4502 73.2364 
-78.3402 86.822 61.0467 -3.31922 0.854335 -147.582 -27.3273 -33.9419 4.423 10.8999 42.4927 -3.00948 14.7612 13.0639 -2.70672 -14.0894 -44.0018 -2.84756 1.74697 6.1686 -0.61112 -4.39467 10.9622 0.388694 6.44932 0.860208 -1.83603 7.95139e-016 3.18055e-015 -0 -66.7554 -7.43722 -25.1007 -13.5304 40.4312 -111.994 6.54677 9.62745 -1.04006 25.3037 -4.31869 -18.1622 78.3601 -50.9961 39.1861 -9.91163 47.0886 143.147 -31.097 7.48305 4.67008 20.1823 3.20155 -15.2834 -16.7172 41.4195 10.1762 -23.4802 39.8543 9.68989 83.9816 -51.8925 73.7593 
-78.1849 87.5946 60.5557 -2.81756 0.892772 -151.98 -24.1553 -34.6936 5.15507 7.84613 40.1557 1.35708 14.3409 14.6706 -2.82018 -13.5535 -45.315 -1.40866 1.59081 5.99982 -0.298683 -4.41445 10.5795 0.990395 5.55119 1.83301 -0.0133164 7.95139e-016 1.59028e-015 -3.18055e-015 -66.3264 -9.83819 -27.6436 -13.9164 40.6006 -110.904 6.54677 9.62745 -1.04006 24.4262 -3.84759 -16.904 76.0708 -44.4761 39.9702 -9.27932 45.2801 140.208 -31.8324 6.83739 6.76736 18.9234 4.2274 -15.7618 -15.5837 40.7521 8.65701 -27.4946 41.6571 11.8982 81.9506 -51.0258 72.8421 
-78.0871 88.2389 60.0744 -2.22945 0.728855 -156.821 -20.7517 -35.6292 5.98097 5.05165 37.8124 5.54177 13.7142 15.9013 -2.83613 -12.7317 -45.9489 0.147519 1.48143 5.76185 -0.262535 -4.24805 10.0803 1.05131 4.20304 2.88857 2.82835 -0 0 3.18055e-015 -66.4431 -13.6187 -31.1006 -14.563 40.5781 -108.591 6.54677 9.62745 -1.04006 23.3106 -3.28922 -15.3372 73.627 -37.0159 40.8651 -9.00322 43.1178 138.062 -32.0918 6.39368 8.24466 17.488 5.62909 -16.1293 -14.5824 39.7303 7.82667 -30.0305 42.3776 13.2619 79.4352 -51.1375 70.5323 
-78.0226 88.7045 59.6336 -1.59226 0.40104 -161.766 -17.3271 -36.6549 6.68367 2.63791 35.6398 9.54292 13.2253 16.6551 -2.81692 -11.6549 -45.9365 1.82276 1.43216 5.49343 -0.561559 -3.8994 9.54932 0.464107 2.60996 3.81801 6.49863 -7.95139e-016 0 -0 -66.992 -18.5531 -35.4745 -15.2106 39.9806 -104.767 6.54677 9.62745 -1.04006 21.974 -2.67552 -13.4997 71.2948 -29.0449 42.0079 -9.20089 40.6262 136.857 -31.9387 6.22745 8.89958 15.9694 7.20185 -16.2631 -13.8024 38.6238 8.01649 -30.358 42.1657 13.3548 76.649 -52.0746 67.0825 
-77.9437 88.9932 59.247 -0.96695 -0.0129919 -166.4 -14.1107 -37.6457 7.07959 0.668131 33.7921 13.2607 13.075 16.9959 -2.8215 -10.4474 -45.4729 3.53797 1.40546 5.24526 -1.22614 -3.42543 9.10106 -0.846516 1.05185 4.44998 10.711 -3.97569e-016 -1.59028e-015 -1.59028e-015 -67.6257 -23.9855 -40.8578 -15.2331 38.2296 -99.2761 6.54677 9.62745 -1.04006 20.5201 -2.06734 -11.5228 69.1592 -20.9637 43.4517 -9.88031 37.7934 136.542 -31.4473 6.34924 8.68009 14.498 8.76089 -16.1271 -13.3109 37.6002 9.30898 -28.3669 41.2195 12.1812 73.3782 -53.2226 62.8402 
-77.8029 89.1472 58.9166 -0.407259 -0.41975 -170.345 -11.3205 -38.4854 7.07895 -0.8346 32.3587 16.5003 13.2483 17.0858 -2.86886 -9.2669 -44.8142 5.1662 1.33677 5.06409 -2.24148 -2.91868 8.83836 -2.88233 -0.195839 4.71921 15.1352 5.96354e-016 1.59028e-015 -7.95139e-016 -64.4019 -26.1713 -46.4135 -12.955 30.9606 -92.5881 6.54677 9.62745 -1.04006 19.1362 -1.53183 -9.60485 67.1617 -13.1387 45.2035 -10.9408 34.6259 136.904 -30.7157 6.70179 7.70225 13.2296 10.1953 -15.7789 -13.1629 36.6967 11.5273 -24.5375 39.6502 10.1027 69.2285 -53.8106 58.1416 
-77.5806 89.2202 58.6391 0.0641536 -0.745036 -173.364 -9.11574 -39.1095 6.70122 -1.87515 31.3597 19.0648 13.5703 17.0907 -2.93944 -8.24572 -44.165 6.57466 1.18685 4.98277 -3.54334 -2.45587 8.82147 -5.54335 -0.983291 4.66785 19.4665 4.96962e-016 1.59028e-015 -3.97569e-016 -52.3261 -22.9566 -50.1899 -8.43527 14.9097 -82.8644 6.54677 9.62745 -1.04006 18.0189 -1.11177 -7.9374 65.1824 -5.9114 47.2211 -12.2045 31.2254 137.624 -29.8841 7.1802 6.22492 12.3019 11.4626 -15.3253 -13.3818 35.8847 14.3248 -19.6717 37.5106 7.63229 64.0228 -53.3346 53.2396 
-77.2966 89.2547 58.4085 0.4567 -0.960224 -175.406 -7.5542 -39.5211 6.04993 -2.47966 30.7607 20.8528 13.8309 17.1068 -2.99802 -7.45386 -43.6017 7.66614 0.974823 5.01483 -5.02434 -2.05469 9.05478 -8.6248 -1.35759 4.37888 23.4689 1.59028e-015 1.59028e-015 -1.59028e-015 -35.2069 -18.5432 -52.3214 -3.03653 -3.18973 -67.1013 6.54677 9.62745 -1.04006 17.2807 -0.814871 -6.64074 63.1612 0.405548 49.3924 -13.4656 27.8572 138.365 -29.1285 7.66805 4.58713 11.781 12.5474 -14.8658 -13.9357 35.1516 17.3233 -14.5948 34.8764 5.24073 57.9643 -51.7378 48.2971 
-77.0005 89.2752 58.2145 0.794355 -1.08329 -176.599 -6.58345 -39.7719 5.27395 -2.69563 30.4896 21.8994 13.8888 17.1392 -3.01437 -6.89226 -43.0635 8.40453 0.766407 5.1515 -6.5452 -1.67622 9.48798 -11.8365 -1.51874 3.90174 26.9674 -7.95139e-016 -9.54166e-015 3.18055e-015 -17.7429 -14.937 -52.9458 3.21786 -16.6856 -45.6328 6.54677 9.62745 -1.04006 16.9148 -0.62592 -5.74833 61.1718 5.56593 51.5297 -14.5387 24.9331 138.85 -28.6116 8.07236 3.12328 11.6313 13.4304 -14.4645 -14.7387 34.5347 20.2261 -9.95209 31.8786 3.23968 51.5326 -49.2924 43.4359 
-76.7496 89.294 58.0428 1.09493 -1.15808 -177.182 -6.07166 -39.9277 4.52592 -2.59984 30.4506 22.3569 13.707 17.1283 -2.97346 -6.51127 -42.4151 8.81619 0.632129 5.36342 -7.9511 -1.26878 10.0322 -14.8423 -1.69239 3.23602 29.8159 -2.38542e-015 -3.18055e-015 6.36111e-015 -4.68814 -13.4541 -52.255 7.80767 -20.1234 -24.1369 6.54677 9.62745 -1.04006 16.8292 -0.521396 -5.22226 59.394 9.433 53.3967 -15.2944 22.8673 138.913 -28.4102 8.34109 2.0817 11.7253 14.0845 -14.1597 -15.6836 34.0978 22.8579 -6.13568 28.6765 1.75782 45.2819 -46.387 38.8013 
-76.5855 89.319 57.8793 1.3569 -1.22611 -177.416 -5.86511 -40.0385 3.91743 -2.30299 30.5448 22.4391 13.3299 17.004 -2.87762 -6.24618 -41.5477 8.96562 0.609621 5.61115 -9.09642 -0.814449 10.5928 -17.3198 -2.01336 2.38128 31.8788 -2.38542e-015 -3.18055e-015 3.18055e-015 2.80758 -13.6552 -50.8089 7.96272 -16.3851 -9.26676 6.54677 9.62745 -1.04006 16.9043 -0.475963 -4.97543 58.0205 11.9846 54.7658 -15.6741 21.8943 138.501 -28.4772 8.4603 1.57926 11.8948 14.4847 -13.9835 -16.6776 33.8914 25.1241 -3.31208 25.4222 0.785539 39.705 -43.4031 34.6005 
-76.5191 89.3569 57.7184 1.55844 -1.3052 -177.483 -5.84782 -40.1209 3.48192 -1.93796 30.6913 22.3474 12.8376 16.7415 -2.74323 -6.0539 -40.471 8.9221 0.693468 5.86123 -9.8752 -0.343835 11.1053 -19.029 -2.48404 1.40312 33.0424 1.59028e-015 0 -3.18055e-015 6.07796 -14.1632 -49.3557 6.21559 -12.1649 -1.63062 6.54677 9.62745 -1.04006 17.0378 -0.465259 -4.9007 57.1797 13.2703 55.4747 -15.6857 21.9858 137.663 -28.6808 8.4417 1.60997 12.0046 14.6107 -13.9661 -17.6533 33.9344 26.9241 -1.49726 22.2556 0.240044 35.2059 -40.7227 31.0946 
